<?xml version="1.0" standalone="no"?><!DOCTYPE svg PUBLIC "-//W3C//DTD SVG 1.1//EN" "http://www.w3.org/Graphics/SVG/1.1/DTD/svg11.dtd"><svg t="1619630794410" class="icon" viewBox="0 0 1024 1024" version="1.1" xmlns="http://www.w3.org/2000/svg" p-id="651" data-darkreader-inline-fill="" xmlns:xlink="http://www.w3.org/1999/xlink" width="200" height="200"><defs><style type="text/css">[data-darkreader-inline-fill] { fill: var(--darkreader-inline-fill)  !important; }
</style></defs><path d="M358.37 399.59c-33.77 0-102.53-10.6-141.12-90.5-51.3-106.21 8.69-201.57 11.27-205.58l3.45-5.36 6.37 0.33c5.16 0.27 126.74 7.83 178.2 114.36 52.29 108.26-32.4 182.2-33.25 182.94l-2.22 1.89-2.88 0.54c-0.29 0.05-7.86 1.38-19.82 1.38z m-114.6-278.47c-11.27 21.1-45.84 97.37-6.7 178.4 40.44 83.79 118.15 79.23 134.18 77.48 12.17-11.66 66.29-70.1 25.48-154.6-39.28-81.31-128.06-98.11-152.96-101.28zM673.83 444.14c-54.11 0-92.87-30.45-93.45-30.92l-2.29-1.83-1.06-2.72c-0.4-1.02-39.01-103.21 57.57-174.72 94.75-70.23 199.64-29.04 204.07-27.25l5.91 2.39 0.86 6.33c0.7 5.1 15.93 125.99-79.13 196.38-32.81 24.29-64.67 32.34-92.48 32.34z m-77.25-46.25c13.69 9.77 81.22 52.07 156.65-3.77 72.8-53.91 72.6-144.13 70.99-169.15-22.8-7.18-104.19-26.95-176.53 26.65-74.81 55.4-55.92 130.97-51.11 146.27zM843.25 633.63H179.26v-101.1h663.99z" fill="#F7B52C" p-id="652" data-darkreader-inline-fill="" style="--darkreader-inline-fill:#b07907;"></path><path d="M225.44 633.63l95.69 293.42h352.59l95.69-293.42M444.74 541.07c-5.53 0-10.81-3.12-13.3-8.46L290.86 231.66c-3.42-7.33-0.26-16.05 7.09-19.49 7.32-3.41 16.07-0.26 19.49 7.09L458.02 520.2c3.42 7.33 0.26 16.05-7.09 19.49-2.01 0.94-4.11 1.38-6.19 1.38z" fill="#F7B52C" p-id="653" data-darkreader-inline-fill="" style="--darkreader-inline-fill:#b07907;"></path><path d="M448.57 544.55c-4.35 0-8.66-1.93-11.56-5.63-5-6.37-3.88-15.6 2.51-20.58L761.5 266.23c6.37-5.01 15.57-3.88 20.58 2.51 5 6.37 3.88 15.6-2.51 20.58L457.59 541.43c-2.68 2.1-5.87 3.12-9.02 3.12zM327.32 306.9c-1.73 0-3.49-0.42-5.14-1.27l-40.87-21.67c-5.36-2.85-7.4-9.51-4.57-14.88 2.84-5.34 9.5-7.36 14.88-4.57l40.87 21.67c5.36 2.85 7.4 9.51 4.57 14.88-1.98 3.72-5.79 5.84-9.74 5.84zM356.19 310.51c-0.86 0-1.72-0.1-2.59-0.3-5.9-1.43-9.54-7.36-8.12-13.28l12.17-50.55c1.43-5.91 7.38-9.45 13.28-8.12 5.9 1.43 9.54 7.36 8.12 13.28l-12.17 50.55c-1.22 5.04-5.73 8.42-10.69 8.42z" fill="#F7B52C" p-id="654" data-darkreader-inline-fill="" style="--darkreader-inline-fill:#b07907;"></path><path d="M661.9 364.69c-0.86 0-1.73-0.1-2.61-0.32-5.9-1.42-9.52-7.38-8.09-13.28l14.25-58.83c1.43-5.89 7.36-9.51 13.28-8.09 5.9 1.42 9.52 7.38 8.09 13.28l-14.25 58.83a11.002 11.002 0 0 1-10.67 8.41zM703.19 338.52c-1.29 0-2.61-0.23-3.88-0.7-5.69-2.15-8.55-8.49-6.42-14.18l16.38-43.41c2.16-5.7 8.54-8.51 14.18-6.42 5.69 2.15 8.55 8.49 6.42 14.18l-16.38 43.41a11.014 11.014 0 0 1-10.3 7.12z" fill="#F7B52C" p-id="655" data-darkreader-inline-fill="" style="--darkreader-inline-fill:#f8ba3a;"></path><path d="M668.64 369.57c-5.43 0-10.15-4.02-10.88-9.55-0.8-6.03 3.44-11.56 9.45-12.35l90.86-12.03c5.94-0.87 11.54 3.44 12.35 9.45 0.8 6.03-3.44 11.56-9.45 12.35l-90.86 12.03c-0.49 0.07-0.98 0.1-1.47 0.1z" fill="#F7B52C" p-id="656" data-darkreader-inline-fill="" style="--darkreader-inline-fill:#f8ba3a;"></path></svg>